# xmcd
# 
# Track frame offsets:
#     150
#     15338
#     28763
#     40125
#     52942
#     64312
#     76237
#     89190
#     103665
#     116000
#     130617
#     136728
#     151702
#     165134
#     177996
#     190971
#     201209
#     213945
#     225153
#     238427
#     252489
#     266847
#     279822
#     293022
#     305712
# 
# Disc length: 4155
# 
# Revision: 0
# Processed by: cddbd v1.5.2PL0 Copyright (c) Steve Scherf et al.
# Submitted via: fre:ac v1.0.17
# 
DISCID=55103919
DTITLE=Various Artist - The Copulatin' Blues Volume 2
DYEAR=1930
DGENRE=Blues
TTITLE0=Harry Roy and His Bat Club Boys - Pussy! (My Girl's Pussy)
TTITLE1=Oscar's Chicago Swingers featuring Lovin' Sam Theard - Try Some Of That
TTITLE2=Walter Roland - Big Mama
TTITLE3=Liff Edwards - Mr. Insurance man
TTITLE4=Claude Hopkins Orchestra - It's Too Big Poppa
TTITLE5=Arthur McKay and Roosevelt Sykes - She Squeezed My Lemon
TTITLE6=Blind Boy Fuller - Shake It Baby
TTITLE7=Butterbeans and Susie - Elevator Papa, Switchboard Mam
TTITLE8=Lil Johnson - If You Don't Give Me What I Want
TTITLE9=Rubberlegs Williams - I Want Every Bit Of It
TTITLE10=Gene Autry - Bye Bye Cherry
TTITLE11=Walter Roland - I'm Gonna Shave You Dry
TTITLE12=The Mississippi Sheiks - Loose Like That
TTITLE13=The Harlem Hamfats - Little Girl
TTITLE14=Bo Carter - Ants In My Pants
TTITLE15=Fats Waller and his Rhythm - Hold Tight (Want Some Sea Food, Mama)
TTITLE16=Bessie Smith - I'm Wild About That Thing
TTITLE17=The Light Crust Doughboys - Pussy, Pussy, Pussy
TTITLE18=Alberta Hunter - Send Me A Man
TTITLE19=Lonnie Johnson& Spencer Williams - It Feels So Good Part 2
TTITLE20=Georgia White - Rock Me Daddy
TTITLE21=Lucille Bogan - Shave'Em Dry (1st version)
TTITLE22=Sophie Tucker with Ted Shapiro and his Orchestra - He Hadn't Up till Yesterday
TTITLE23=Mary Dixon - Daddy, You've Got Ev'rything
TTITLE24=The Clovers - The Rotten Cocksuckers Ball
EXTD=
EXTT0=
EXTT1=
EXTT2=
EXTT3=
EXTT4=
EXTT5=
EXTT6=
EXTT7=
EXTT8=
EXTT9=
EXTT10=
EXTT11=
EXTT12=
EXTT13=
EXTT14=
EXTT15=
EXTT16=
EXTT17=
EXTT18=
EXTT19=
EXTT20=
EXTT21=
EXTT22=
EXTT23=
EXTT24=
PLAYORDER=
